<svg width="188" height="30" viewBox="0 0 188 30" fill="none" xmlns="http://www.w3.org/2000/svg">
<path d="M6.20203 13.3559H19.642V18.5559H6.20203V13.3559ZM6.68203 28.7559H0.202034V0.755857H21.362V5.95586H6.68203V28.7559ZM51.0755 29.2359C48.8621 29.2359 46.8088 28.8759 44.9155 28.1559C43.0488 27.4359 41.4221 26.4225 40.0355 25.1159C38.6755 23.8092 37.6088 22.2759 36.8355 20.5159C36.0888 18.7559 35.7155 16.8359 35.7155 14.7559C35.7155 12.6759 36.0888 10.7559 36.8355 8.99586C37.6088 7.23586 38.6888 5.70253 40.0755 4.39586C41.4621 3.08919 43.0888 2.07586 44.9555 1.35586C46.8221 0.635858 48.8488 0.275859 51.0355 0.275859C53.2488 0.275859 55.2755 0.635858 57.1155 1.35586C58.9821 2.07586 60.5955 3.08919 61.9555 4.39586C63.3421 5.70253 64.4221 7.23586 65.1955 8.99586C65.9688 10.7292 66.3555 12.6492 66.3555 14.7559C66.3555 16.8359 65.9688 18.7692 65.1955 20.5559C64.4221 22.3159 63.3421 23.8492 61.9555 25.1559C60.5955 26.4359 58.9821 27.4359 57.1155 28.1559C55.2755 28.8759 53.2621 29.2359 51.0755 29.2359ZM51.0355 23.7159C52.2888 23.7159 53.4355 23.5025 54.4755 23.0759C55.5421 22.6492 56.4755 22.0359 57.2755 21.2359C58.0755 20.4359 58.6888 19.4892 59.1155 18.3959C59.5688 17.3025 59.7955 16.0892 59.7955 14.7559C59.7955 13.4225 59.5688 12.2092 59.1155 11.1159C58.6888 10.0225 58.0755 9.07586 57.2755 8.27586C56.5021 7.47586 55.5821 6.86252 54.5155 6.43586C53.4488 6.00919 52.2888 5.79586 51.0355 5.79586C49.7821 5.79586 48.6221 6.00919 47.5555 6.43586C46.5155 6.86252 45.5955 7.47586 44.7955 8.27586C43.9955 9.07586 43.3688 10.0225 42.9155 11.1159C42.4888 12.2092 42.2755 13.4225 42.2755 14.7559C42.2755 16.0625 42.4888 17.2759 42.9155 18.3959C43.3688 19.4892 43.9821 20.4359 44.7555 21.2359C45.5555 22.0359 46.4888 22.6492 47.5555 23.0759C48.6221 23.5025 49.7821 23.7159 51.0355 23.7159ZM96.8255 29.2359C94.6121 29.2359 92.5588 28.8759 90.6655 28.1559C88.7988 27.4359 87.1721 26.4225 85.7855 25.1159C84.4255 23.8092 83.3588 22.2759 82.5855 20.5159C81.8388 18.7559 81.4655 16.8359 81.4655 14.7559C81.4655 12.6759 81.8388 10.7559 82.5855 8.99586C83.3588 7.23586 84.4388 5.70253 85.8255 4.39586C87.2121 3.08919 88.8388 2.07586 90.7055 1.35586C92.5721 0.635858 94.5988 0.275859 96.7855 0.275859C98.9988 0.275859 101.025 0.635858 102.865 1.35586C104.732 2.07586 106.345 3.08919 107.705 4.39586C109.092 5.70253 110.172 7.23586 110.945 8.99586C111.719 10.7292 112.105 12.6492 112.105 14.7559C112.105 16.8359 111.719 18.7692 110.945 20.5559C110.172 22.3159 109.092 23.8492 107.705 25.1559C106.345 26.4359 104.732 27.4359 102.865 28.1559C101.025 28.8759 99.0121 29.2359 96.8255 29.2359ZM96.7855 23.7159C98.0388 23.7159 99.1855 23.5025 100.225 23.0759C101.292 22.6492 102.225 22.0359 103.025 21.2359C103.825 20.4359 104.439 19.4892 104.865 18.3959C105.319 17.3025 105.545 16.0892 105.545 14.7559C105.545 13.4225 105.319 12.2092 104.865 11.1159C104.439 10.0225 103.825 9.07586 103.025 8.27586C102.252 7.47586 101.332 6.86252 100.265 6.43586C99.1988 6.00919 98.0388 5.79586 96.7855 5.79586C95.5321 5.79586 94.3721 6.00919 93.3055 6.43586C92.2655 6.86252 91.3455 7.47586 90.5455 8.27586C89.7455 9.07586 89.1188 10.0225 88.6655 11.1159C88.2388 12.2092 88.0255 13.4225 88.0255 14.7559C88.0255 16.0625 88.2388 17.2759 88.6655 18.3959C89.1188 19.4892 89.7321 20.4359 90.5055 21.2359C91.3055 22.0359 92.2388 22.6492 93.3055 23.0759C94.3721 23.5025 95.5321 23.7159 96.7855 23.7159ZM138.175 29.2359C135.935 29.2359 133.789 28.9425 131.735 28.3559C129.682 27.7425 128.029 26.9559 126.775 25.9959L128.975 21.1159C130.175 21.9692 131.589 22.6759 133.215 23.2359C134.869 23.7692 136.535 24.0359 138.215 24.0359C139.495 24.0359 140.522 23.9159 141.295 23.6759C142.095 23.4092 142.682 23.0492 143.055 22.5959C143.429 22.1425 143.615 21.6225 143.615 21.0359C143.615 20.2892 143.322 19.7025 142.735 19.2759C142.149 18.8225 141.375 18.4625 140.415 18.1959C139.455 17.9025 138.389 17.6359 137.215 17.3959C136.069 17.1292 134.909 16.8092 133.735 16.4359C132.589 16.0625 131.535 15.5825 130.575 14.9959C129.615 14.4092 128.829 13.6359 128.215 12.6759C127.629 11.7159 127.335 10.4892 127.335 8.99586C127.335 7.39586 127.762 5.94252 128.615 4.63586C129.495 3.30252 130.802 2.24919 132.535 1.47586C134.295 0.675858 136.495 0.275859 139.135 0.275859C140.895 0.275859 142.629 0.489192 144.335 0.915858C146.042 1.31586 147.549 1.92919 148.855 2.75586L146.855 7.67586C145.549 6.92919 144.242 6.38253 142.935 6.03586C141.629 5.66253 140.349 5.47586 139.095 5.47586C137.842 5.47586 136.815 5.62253 136.015 5.91586C135.215 6.20919 134.642 6.59586 134.295 7.07586C133.949 7.52919 133.775 8.06252 133.775 8.67586C133.775 9.39586 134.069 9.98252 134.655 10.4359C135.242 10.8625 136.015 11.2092 136.975 11.4759C137.935 11.7425 138.989 12.0092 140.135 12.2759C141.309 12.5425 142.469 12.8492 143.615 13.1959C144.789 13.5425 145.855 14.0092 146.815 14.5959C147.775 15.1825 148.549 15.9559 149.135 16.9159C149.749 17.8759 150.055 19.0892 150.055 20.5559C150.055 22.1292 149.615 23.5692 148.735 24.8759C147.855 26.1825 146.535 27.2359 144.775 28.0359C143.042 28.8359 140.842 29.2359 138.175 29.2359ZM171.893 28.7559V6.03586H162.933V0.755857H187.333V6.03586H178.373V28.7559H171.893Z" fill="black"/>
</svg>
