<svg xmlns="http://www.w3.org/2000/svg" xmlns:xlink="http://www.w3.org/1999/xlink" width="500" zoomAndPan="magnify" viewBox="0 0 375 374.999991" height="500" preserveAspectRatio="xMidYMid meet" version="1.0"><defs><g/><clipPath id="18f5bbd755"><rect x="0" width="353" y="0" height="85"/></clipPath></defs><rect x="-37.5" width="450" fill="#ffffff" y="-37.499999" height="449.999989" fill-opacity="1"/><rect x="-37.5" width="450" fill="#ffffff" y="-37.499999" height="449.999989" fill-opacity="1"/><g transform="matrix(1, 0, 0, 1, 22, 144)"><g clip-path="url(#18f5bbd755)"><g fill="#000000" fill-opacity="1"><g transform="translate(0.947372, 66.110096)"><g><path d="M 17 -39.53125 L 17 -26.703125 L 39.46875 -26.703125 L 39.46875 -17.6875 L 17 -17.6875 L 17 0 L 5.75 0 L 5.75 -48.546875 L 42.453125 -48.546875 L 42.453125 -39.53125 Z M 17 -39.53125 "/></g></g></g><g fill="#000000" fill-opacity="1"><g transform="translate(66.077797, 66.110096)"><g><path d="M 29.265625 0.828125 C 24.222656 0.828125 19.679688 -0.253906 15.640625 -2.421875 C 11.597656 -4.597656 8.429688 -7.59375 6.140625 -11.40625 C 3.847656 -15.21875 2.703125 -19.507812 2.703125 -24.28125 C 2.703125 -29.039062 3.847656 -33.328125 6.140625 -37.140625 C 8.429688 -40.953125 11.597656 -43.945312 15.640625 -46.125 C 19.679688 -48.300781 24.222656 -49.390625 29.265625 -49.390625 C 34.304688 -49.390625 38.835938 -48.300781 42.859375 -46.125 C 46.878906 -43.945312 50.046875 -40.953125 52.359375 -37.140625 C 54.671875 -33.328125 55.828125 -29.039062 55.828125 -24.28125 C 55.828125 -19.507812 54.671875 -15.21875 52.359375 -11.40625 C 50.046875 -7.59375 46.878906 -4.597656 42.859375 -2.421875 C 38.835938 -0.253906 34.304688 0.828125 29.265625 0.828125 Z M 29.265625 -8.734375 C 32.128906 -8.734375 34.71875 -9.390625 37.03125 -10.703125 C 39.34375 -12.023438 41.15625 -13.863281 42.46875 -16.21875 C 43.789062 -18.582031 44.453125 -21.269531 44.453125 -24.28125 C 44.453125 -27.28125 43.789062 -29.957031 42.46875 -32.3125 C 41.15625 -34.675781 39.34375 -36.515625 37.03125 -37.828125 C 34.71875 -39.148438 32.128906 -39.8125 29.265625 -39.8125 C 26.398438 -39.8125 23.8125 -39.148438 21.5 -37.828125 C 19.1875 -36.515625 17.367188 -34.675781 16.046875 -32.3125 C 14.734375 -29.957031 14.078125 -27.28125 14.078125 -24.28125 C 14.078125 -21.269531 14.734375 -18.582031 16.046875 -16.21875 C 17.367188 -13.863281 19.1875 -12.023438 21.5 -10.703125 C 23.8125 -9.390625 26.398438 -8.734375 29.265625 -8.734375 Z M 29.265625 -8.734375 "/></g></g></g><g fill="#000000" fill-opacity="1"><g transform="translate(145.426747, 66.110096)"><g><path d="M 29.265625 0.828125 C 24.222656 0.828125 19.679688 -0.253906 15.640625 -2.421875 C 11.597656 -4.597656 8.429688 -7.59375 6.140625 -11.40625 C 3.847656 -15.21875 2.703125 -19.507812 2.703125 -24.28125 C 2.703125 -29.039062 3.847656 -33.328125 6.140625 -37.140625 C 8.429688 -40.953125 11.597656 -43.945312 15.640625 -46.125 C 19.679688 -48.300781 24.222656 -49.390625 29.265625 -49.390625 C 34.304688 -49.390625 38.835938 -48.300781 42.859375 -46.125 C 46.878906 -43.945312 50.046875 -40.953125 52.359375 -37.140625 C 54.671875 -33.328125 55.828125 -29.039062 55.828125 -24.28125 C 55.828125 -19.507812 54.671875 -15.21875 52.359375 -11.40625 C 50.046875 -7.59375 46.878906 -4.597656 42.859375 -2.421875 C 38.835938 -0.253906 34.304688 0.828125 29.265625 0.828125 Z M 29.265625 -8.734375 C 32.128906 -8.734375 34.71875 -9.390625 37.03125 -10.703125 C 39.34375 -12.023438 41.15625 -13.863281 42.46875 -16.21875 C 43.789062 -18.582031 44.453125 -21.269531 44.453125 -24.28125 C 44.453125 -27.28125 43.789062 -29.957031 42.46875 -32.3125 C 41.15625 -34.675781 39.34375 -36.515625 37.03125 -37.828125 C 34.71875 -39.148438 32.128906 -39.8125 29.265625 -39.8125 C 26.398438 -39.8125 23.8125 -39.148438 21.5 -37.828125 C 19.1875 -36.515625 17.367188 -34.675781 16.046875 -32.3125 C 14.734375 -29.957031 14.078125 -27.28125 14.078125 -24.28125 C 14.078125 -21.269531 14.734375 -18.582031 16.046875 -16.21875 C 17.367188 -13.863281 19.1875 -12.023438 21.5 -10.703125 C 23.8125 -9.390625 26.398438 -8.734375 29.265625 -8.734375 Z M 29.265625 -8.734375 "/></g></g></g><g fill="#000000" fill-opacity="1"><g transform="translate(224.775698, 66.110096)"><g><path d="M 21.703125 0.828125 C 17.867188 0.828125 14.160156 0.3125 10.578125 -0.71875 C 6.992188 -1.757812 4.113281 -3.113281 1.9375 -4.78125 L 5.75 -13.25 C 7.832031 -11.71875 10.304688 -10.488281 13.171875 -9.5625 C 16.046875 -8.644531 18.914062 -8.1875 21.78125 -8.1875 C 24.96875 -8.1875 27.320312 -8.660156 28.84375 -9.609375 C 30.375 -10.554688 31.140625 -11.816406 31.140625 -13.390625 C 31.140625 -14.546875 30.6875 -15.503906 29.78125 -16.265625 C 28.882812 -17.023438 27.726562 -17.632812 26.3125 -18.09375 C 24.90625 -18.5625 23 -19.070312 20.59375 -19.625 C 16.894531 -20.507812 13.863281 -21.390625 11.5 -22.265625 C 9.144531 -23.140625 7.125 -24.546875 5.4375 -26.484375 C 3.75 -28.429688 2.90625 -31.023438 2.90625 -34.265625 C 2.90625 -37.085938 3.664062 -39.640625 5.1875 -41.921875 C 6.71875 -44.210938 9.019531 -46.03125 12.09375 -47.375 C 15.175781 -48.71875 18.9375 -49.390625 23.375 -49.390625 C 26.46875 -49.390625 29.492188 -49.019531 32.453125 -48.28125 C 35.421875 -47.539062 38.015625 -46.472656 40.234375 -45.078125 L 36.765625 -36.546875 C 32.273438 -39.085938 27.789062 -40.359375 23.3125 -40.359375 C 20.164062 -40.359375 17.835938 -39.847656 16.328125 -38.828125 C 14.828125 -37.816406 14.078125 -36.476562 14.078125 -34.8125 C 14.078125 -33.15625 14.941406 -31.921875 16.671875 -31.109375 C 18.410156 -30.296875 21.0625 -29.5 24.625 -28.71875 C 28.320312 -27.832031 31.347656 -26.953125 33.703125 -26.078125 C 36.066406 -25.203125 38.09375 -23.816406 39.78125 -21.921875 C 41.46875 -20.023438 42.3125 -17.457031 42.3125 -14.21875 C 42.3125 -11.445312 41.535156 -8.914062 39.984375 -6.625 C 38.429688 -4.332031 36.109375 -2.515625 33.015625 -1.171875 C 29.921875 0.160156 26.148438 0.828125 21.703125 0.828125 Z M 21.703125 0.828125 "/></g></g></g><g fill="#000000" fill-opacity="1"><g transform="translate(289.836746, 66.110096)"><g><path d="M 15.8125 -39.390625 L 0.28125 -39.390625 L 0.28125 -48.546875 L 42.59375 -48.546875 L 42.59375 -39.390625 L 27.046875 -39.390625 L 27.046875 0 L 15.8125 0 Z M 15.8125 -39.390625 "/></g></g></g></g></g></svg>