
<!-- Generator: visioncortex VTracer 0.6.4 -->
<svg version="1.1" xmlns="http://www.w3.org/2000/svg" viewBox="0 0 328 260" preserveAspectRatio="xMidYMid meet">
<path d="M0 0 C108.24 0 216.48 0 328 0 C328 85.8 328 171.6 328 260 C219.76 260 111.52 260 0 260 C0 174.2 0 88.4 0 0 Z " fill="#051445" transform="translate(0,0)"/>
<path d="M0 0 C0.899 -0.054 1.798 -0.108 2.725 -0.164 C6.42 -0.24 9.182 -0.285 12.282 1.867 C15.012 4.779 16.197 6.847 16.898 10.809 C16.829 11.841 16.759 12.874 16.688 13.938 C16.633 14.988 16.579 16.039 16.523 17.121 C16.454 17.906 16.384 18.691 16.312 19.5 C17.303 19.83 18.292 20.16 19.312 20.5 C21.298 23.074 22.232 25.139 22.938 28.312 C21.983 33.18 18.85 36.147 15.312 39.5 C12.77 40.771 10.964 40.629 8.121 40.633 C7.094 40.634 6.068 40.635 5.01 40.637 C3.934 40.633 2.858 40.629 1.75 40.625 C0.67 40.629 -0.409 40.633 -1.521 40.637 C-3.06 40.635 -3.06 40.635 -4.629 40.633 C-5.575 40.632 -6.52 40.631 -7.494 40.629 C-9.688 40.5 -9.688 40.5 -10.688 39.5 C-10.789 36.7 -10.827 33.925 -10.82 31.125 C-10.821 30.285 -10.822 29.446 -10.823 28.581 C-10.824 26.802 -10.822 25.023 -10.818 23.244 C-10.813 20.512 -10.818 17.779 -10.824 15.047 C-10.824 13.323 -10.822 11.599 -10.82 9.875 C-10.822 9.052 -10.824 8.229 -10.826 7.381 C-10.791 -1.248 -7.684 0.194 0 0 Z " fill="#F2F2F5" transform="translate(187.6875,198.5)"/>
<path d="M0 0 C-0.918 0.424 -1.836 0.848 -2.781 1.285 C-11.14 5.241 -18.437 9.1 -24 16.75 C-25.776 22.522 -26.155 27.923 -24.004 33.652 C-15.552 49.191 4.254 57.882 20.43 63.261 C26.127 64.899 31.976 65.855 37.828 66.759 C38.719 66.896 39.61 67.034 40.527 67.176 C41.714 67.345 41.714 67.345 42.926 67.517 C45 68 45 68 48 70 C47.34 73.3 46.68 76.6 46 80 C37.713 79.518 30.524 77.553 22.688 74.875 C21.486 74.466 20.284 74.057 19.045 73.636 C3.743 68.309 -15.378 59.709 -25 46 C-25.634 45.123 -26.268 44.247 -26.922 43.344 C-31.747 35.838 -33.446 29.888 -32 21 C-29.839 13.436 -24.154 8.581 -18.25 3.75 C-12.815 0.823 -6.117 -2.111 0 0 Z " fill="#446DE7" transform="translate(102,91)"/>
<path d="M0 0 C22.501 1.956 43.949 11.77 62 25 C62.739 25.534 63.477 26.067 64.238 26.617 C70.06 31.187 75.291 38.099 78 45 C79.075 53.989 78.357 61.554 73 69 C67.088 75.187 58.379 79.324 50 81 C47.805 80.539 47.805 80.539 46 80 C46.762 79.648 47.524 79.296 48.309 78.934 C61.317 72.826 61.317 72.826 70.422 62.094 C71.92 56.668 72.086 49.306 70 44 C68.515 43.505 68.515 43.505 67 43 C66.569 42.259 66.139 41.518 65.695 40.754 C63.62 37.382 60.997 35.275 57.875 32.938 C57.294 32.497 56.713 32.057 56.114 31.603 C52.301 28.784 48.572 26.557 44.129 24.848 C41.87 23.948 39.868 22.817 37.75 21.625 C26.062 15.708 11.962 12.557 -1 11 C-1.074 7.13 -1.047 3.726 0 0 Z " fill="#6A41E1" transform="translate(163,20)"/>
<path d="M0 0 C2 1 2 1 2 1 Z M0 1 C-2 3 -2 3 -4.375 3.875 C-7.341 5.146 -8.77 6.7 -11 9 C-13.5 10.5 -13.5 10.5 -16 12 C-18.437 13.52 -18.437 13.52 -20 16 C-20.33 19.03 -20.233 21.966 -20 25 C-18.668 25.462 -17.334 25.92 -16 26.375 C-14.886 26.758 -14.886 26.758 -13.75 27.148 C-12.843 27.429 -11.935 27.71 -11 28 C-9.885 28.357 -8.77 28.714 -7.621 29.082 C-1.22 30.637 5.391 30.346 11.938 30.312 C12.988 30.311 12.988 30.311 14.06 30.309 C23.747 30.277 33.308 29.835 42.938 28.688 C43.929 28.57 44.921 28.452 45.943 28.331 C51.255 27.615 56.106 26.483 61.127 24.597 C63 24 63 24 66 24 C66.99 29.445 66.99 29.445 68 35 C54.019 40.151 39.1 40.235 24.375 40.25 C23.673 40.251 22.971 40.252 22.248 40.253 C-13.782 40.218 -13.782 40.218 -25 29 C-27.543 24.725 -27.637 20.857 -27 16 C-24.08 9.047 -16.642 4.962 -9.902 2.113 C-6.593 1.088 -3.447 0.791 0 1 Z " fill="#3E7BE5" transform="translate(144,90)"/>
<path d="M0 0 C-2.516 2.516 -5.39 3.693 -8.562 5.188 C-16.09 8.846 -24.857 13.434 -29 21 C-29.776 25.459 -29.846 28.658 -27.391 32.555 C-22.898 37.15 -16.777 39.363 -11 42 C-10.285 42.344 -9.569 42.688 -8.832 43.043 C-2.327 45.872 5.013 46.227 12 47 C12 47.66 12 48.32 12 49 C29.325 49.495 29.325 49.495 47 50 C47 53.63 47 57.26 47 61 C21.219 62.069 -9.953 57.47 -30.516 40.547 C-34.575 36.317 -36.215 31.807 -36.625 26 C-36.334 20.231 -34.086 16.944 -30 13 C-21.964 5.843 -11.134 -0.667 0 0 Z " fill="#3F7EEB" transform="translate(125,90)"/>
<path d="M0 0 C24.816 -1.143 57.779 3.43 77.293 20.332 C81.491 24.434 83.242 27.457 83.625 33.312 C83.346 39.541 81.335 43.564 77 48 C70.059 53.626 61.637 57.725 53 60 C50.822 59.547 50.822 59.547 49 59 C50.134 58.432 51.269 57.863 52.438 57.277 C65.825 50.623 65.825 50.623 76.062 40 C77.312 36.001 77.335 34.005 76 30 C66.399 17.105 45.268 14.675 30.589 12.441 C20.445 11.194 10.208 11.088 0 11 C0 7.37 0 3.74 0 0 Z " fill="#6B41E2" transform="translate(139,40)"/>
<path d="M0 0 C3.274 3.641 4.9 6.018 5 11 C2.972 17.423 -0.218 21.39 -6.051 24.766 C-12.112 27.524 -17.309 29.738 -24 30 C-21.157 27.786 -18.245 25.923 -15.125 24.125 C-9.92 21.031 -5.408 18.113 -2 13 C-2.137 9.704 -2.225 7.736 -4.668 5.414 C-24.23 -6.448 -59.188 0.029 -79.92 4.607 C-82.634 5.12 -85.248 5.145 -88 5 C-89.858 1.865 -90.201 -0.375 -90 -4 C-64.233 -10.883 -23.203 -16.508 0 0 Z " fill="#8F2ECD" transform="translate(190,70)"/>
<path d="M0 0 C3.991 2.684 5.164 6.537 6.965 10.887 C7.35 11.782 7.734 12.677 8.131 13.6 C9.281 16.293 10.405 18.995 11.527 21.699 C12.165 23.194 12.803 24.689 13.441 26.184 C17.992 37.047 17.992 37.047 17.527 41.699 C16.527 42.699 16.527 42.699 14.277 43.199 C13.37 43.034 12.462 42.869 11.527 42.699 C10.492 41.135 10.492 41.135 9.438 39.195 C7.881 36.907 7.136 35.867 4.438 35.124 C1.998 35.011 -0.349 35.087 -2.785 35.262 C-3.621 35.293 -4.457 35.325 -5.318 35.357 C-7.371 35.44 -9.422 35.565 -11.473 35.699 C-12.463 38.009 -13.453 40.319 -14.473 42.699 C-16.123 42.699 -17.773 42.699 -19.473 42.699 C-20.657 40.718 -20.657 40.718 -21.473 37.699 C-20.639 34.753 -19.731 32.195 -18.527 29.406 C-18.201 28.619 -17.875 27.832 -17.539 27.021 C-16.846 25.361 -16.144 23.704 -15.435 22.051 C-14.351 19.519 -13.301 16.975 -12.254 14.428 C-11.576 12.816 -10.897 11.204 -10.215 9.594 C-9.901 8.832 -9.587 8.071 -9.264 7.286 C-7.001 2.083 -7.001 2.083 -4.393 0.187 C-2.473 -0.301 -2.473 -0.301 0 0 Z " fill="#E6E8ED" transform="translate(154.47265625,197.30078125)"/>
<path d="M0 0 C4.084 0.645 5.709 3.315 8.082 6.438 C8.536 7.01 8.991 7.582 9.459 8.172 C10.576 9.583 11.675 11.009 12.77 12.438 C17.442 10.88 18.96 6.85 21.539 2.809 C23.77 0.438 23.77 0.438 27.031 0.098 C27.935 0.21 28.839 0.322 29.77 0.438 C30.43 2.172 30.43 2.172 30.77 4.438 C29.766 6.516 29.766 6.516 28.207 8.688 C27.655 9.485 27.104 10.283 26.535 11.105 C24.77 13.438 24.77 13.438 23.066 15.238 C17.968 20.82 18.052 26.626 17.973 33.828 C17.789 37.086 17.513 38.754 15.77 41.438 C14.12 41.438 12.47 41.438 10.77 41.438 C9.486 38.87 9.824 36.739 9.885 33.926 C9.935 22.499 5.51 16.472 -2.23 8.438 C-2.56 8.107 -2.89 7.778 -3.23 7.438 C-3.355 4.438 -3.355 4.438 -3.23 1.438 C-2.23 0.438 -2.23 0.438 0 0 Z " fill="#E6E7EC" transform="translate(105.23046875,197.5625)"/>
<path d="M0 0 C-2.516 2.516 -5.39 3.693 -8.562 5.188 C-16.09 8.846 -24.857 13.434 -29 21 C-29.775 25.454 -29.845 28.655 -27.398 32.551 C-24.613 35.396 -21.685 37.028 -18.125 38.688 C-17.526 38.982 -16.926 39.277 -16.309 39.58 C-12.62 41.361 -8.91 42.786 -5 44 C-5.99 44.99 -6.98 45.98 -8 47 C-7.691 47.619 -7.381 48.238 -7.062 48.875 C-6.375 50.25 -5.688 51.625 -5 53 C-14.595 51.609 -27.411 45.044 -33.367 37.199 C-36.338 32.087 -37.177 26.799 -36 21 C-32.232 12.671 -23.428 6.958 -15.352 3.387 C-5.383 -0.323 -5.383 -0.323 0 0 Z " fill="#426DE5" transform="translate(125,90)"/>
<path d="M0 0 C10.241 0.165 21.735 3.539 29.25 10.688 C30.967 13.749 31.617 15.726 31.688 19.25 C29.659 25.673 26.47 29.64 20.637 33.016 C14.575 35.774 9.378 37.988 2.688 38.25 C5.53 36.036 8.442 34.173 11.562 32.375 C16.768 29.281 21.279 26.363 24.688 21.25 C24.55 17.954 24.462 15.986 22.02 13.664 C15.109 9.474 5.619 8.922 -2.312 8.25 C-2.312 7.59 -2.312 6.93 -2.312 6.25 C-2.972 6.25 -3.632 6.25 -4.312 6.25 C-4.355 4.584 -4.353 2.916 -4.312 1.25 C-3.312 0.25 -3.312 0.25 0 0 Z " fill="#6940DD" transform="translate(163.3125,61.75)"/>
<path d="M0 0 C0.361 1.811 0.714 3.624 1.062 5.438 C1.358 6.952 1.358 6.952 1.66 8.496 C1.772 9.322 1.884 10.149 2 11 C0.207 12.793 -2.508 12.492 -4.941 12.754 C-6.165 12.886 -7.389 13.018 -8.65 13.154 C-10.587 13.356 -10.587 13.356 -12.562 13.562 C-13.826 13.701 -15.09 13.84 -16.393 13.982 C-22.628 14.644 -28.729 15.182 -35 15 C-36.125 10.25 -36.125 10.25 -35 8 C-35.66 7.34 -36.32 6.68 -37 6 C-35.935 5.887 -35.935 5.887 -34.848 5.772 C-31.585 5.421 -28.324 5.054 -25.062 4.688 C-23.946 4.57 -22.829 4.452 -21.678 4.33 C-15.762 3.653 -10.37 2.744 -4.802 0.597 C-3 0 -3 0 0 0 Z " fill="#3593E8" transform="translate(210,114)"/>
<path d="M0 0 C6.111 0.828 12.178 1.86 18.25 2.938 C19.739 3.192 19.739 3.192 21.258 3.451 C22.209 3.621 23.16 3.79 24.141 3.965 C25.002 4.116 25.863 4.266 26.751 4.422 C29 5 29 5 32 7 C31.34 10.3 30.68 13.6 30 17 C22.184 16.533 11.348 15.871 5.258 10.449 C4.843 9.971 4.428 9.493 4 9 C2.917 8.35 2.917 8.35 1.812 7.688 C0 6 0 6 -0.25 2.812 C-0.168 1.884 -0.085 0.956 0 0 Z " fill="#3F7DE9" transform="translate(118,154)"/>
<path d="M0 0 C3.539 1.651 4.811 2.716 7 6 C7.585 10.427 7.271 12.518 5.062 16.438 C1.468 19.445 -0.286 19.802 -4.84 19.438 C-8.372 18.722 -9.843 17.923 -12 15 C-13.038 9.912 -12.817 6.238 -9.938 1.875 C-6.249 -0.48 -4.308 -0.615 0 0 Z " fill="#2DA2E2" transform="translate(282,107)"/>
<path d="M0 0 C2.312 1.438 2.312 1.438 4 3 C4 3.66 4 4.32 4 5 C4.66 5 5.32 5 6 5 C6.468 9.772 6.685 12.951 4 17.062 C0.655 19.223 -1.169 19.677 -5.066 19.434 C-8.106 18.752 -9.867 17.198 -12 15 C-13.61 11.781 -13.607 8.481 -13 5 C-9.141 0.098 -6.09 -1.782 0 0 Z " fill="#2DA4E5" transform="translate(265,139)"/>
<path d="M0 0 C3.138 2.027 4.659 3.453 5.477 7.16 C5.743 11.355 5.332 13.492 3 17.062 C-0.345 19.223 -2.169 19.677 -6.066 19.434 C-9.106 18.752 -10.867 17.198 -13 15 C-14.596 11.808 -14.515 8.465 -14 5 C-10.222 0.089 -6.061 -0.985 0 0 Z " fill="#2C9DDD" transform="translate(296,78)"/>
<path d="M0 0 C2.046 4.092 1.387 8.699 0.125 12.938 C-2.86 15.835 -5.478 15.985 -9.551 16.211 C-13.049 15.91 -14.708 14.588 -17 12 C-18.55 8.9 -18.29 6.421 -18 3 C-16.308 0.221 -15.093 -1.49 -12.125 -2.875 C-7.743 -3.133 -3.73 -2.348 0 0 Z " fill="#AE17AF" transform="translate(28,97)"/>
<path d="M0 0 C3.662 2.649 4.841 4.011 5.562 8.5 C4.9 12.625 4.147 14.257 1 17 C-3.91 18.364 -7.379 18.149 -12 16 C-14.484 12.274 -14.38 10.413 -14 6 C-12.744 3.173 -11.674 1.53 -9.25 -0.375 C-5.812 -1.33 -3.436 -0.904 0 0 Z " fill="#B317B2" transform="translate(37,66)"/>
<path d="M0 0 C2.883 1.857 5.443 3.886 7 7 C7.43 10.872 7.317 12.525 5.125 15.812 C1.814 19.221 -0.33 19.134 -5.027 19.23 C-7 19 -7 19 -10 17 C-11.346 12.962 -11.573 9.223 -11 5 C-7.951 0.934 -5.078 -0.692 0 0 Z " fill="#AD17AF" transform="translate(52,32)"/>
<path d="M0 0 C2 2 2 2 2.195 4.383 C2.172 5.288 2.149 6.193 2.125 7.125 C2.107 8.035 2.089 8.945 2.07 9.883 C2.047 10.581 2.024 11.28 2 12 C-1.16 13.58 -4.535 13.184 -8 13.188 C-8.737 13.2 -9.475 13.212 -10.234 13.225 C-12.158 13.23 -14.081 13.122 -16 13 C-18 11 -18 11 -18.23 8.871 C-18.216 8.068 -18.202 7.265 -18.188 6.438 C-18.181 5.632 -18.175 4.826 -18.168 3.996 C-18 2 -18 2 -17 1 C-15.089 0.763 -13.17 0.585 -11.25 0.438 C-9.68 0.312 -9.68 0.312 -8.078 0.184 C-2.333 -0.159 -2.333 -0.159 0 0 Z " fill="#3388DA" transform="translate(197,161)"/>
<path d="M0 0 C1.815 3.858 2.094 6.767 2 11 C-0.394 11.533 -2.789 12.052 -5.188 12.562 C-5.861 12.714 -6.535 12.865 -7.229 13.021 C-11.133 13.84 -14.152 14.128 -18 13 C-18.33 10.03 -18.66 7.06 -19 4 C-12.374 0.901 -7.326 -0.473 0 0 Z " fill="#338ADD" transform="translate(221,135)"/>
<path d="M0 0 C2.153 2.87 2.37 5.48 2 9 C-0.225 11.225 -1.597 11.653 -4.562 12.562 C-7.543 13.332 -7.543 13.332 -10 15 C-12.938 15.188 -12.938 15.188 -16 15 C-18 13 -18 13 -18.195 11.055 C-18.13 9.036 -18.065 7.018 -18 5 C-4.723 -1.787 -4.723 -1.787 0 0 Z " fill="#2D9DDE" transform="translate(257,101)"/>
<path d="M0 0 C1.871 3.853 1.99 5.88 1 10 C-1.06 10.675 -3.123 11.34 -5.188 12 C-6.336 12.371 -7.485 12.743 -8.668 13.125 C-11.643 13.906 -13.953 14.184 -17 14 C-18.63 9.878 -19.263 7.293 -18 3 C-11.757 0.521 -6.717 -0.32 0 0 Z " fill="#2DA6E5" transform="translate(246,130)"/>
<path d="M0 0 C4.62 0 9.24 0 14 0 C14 0.66 14 1.32 14 2 C16.31 2 18.62 2 21 2 C21 4.31 21 6.62 21 9 C23.475 9.495 23.475 9.495 26 10 C26 10.33 26 10.66 26 11 C17.42 11 8.84 11 0 11 C0 7.37 0 3.74 0 0 Z " fill="#8B2DC8" transform="translate(139,40)"/>
<path d="M0 0 C3.653 1.25 4.781 1.671 7 5 C6.918 7.484 6.918 7.484 6 10 C1.463 13.862 -3.993 16.684 -10 17 C-12.507 14.388 -12.994 13.055 -13.375 9.375 C-13.189 7.704 -13.189 7.704 -13 6 C-10.315 4.21 -8.399 3.378 -5.375 2.438 C-2.428 1.661 -2.428 1.661 0 0 Z " fill="#2DA2E1" transform="translate(275,90)"/>
<path d="M0 0 C0.737 0.008 1.475 0.015 2.234 0.023 C3.34 0.012 3.34 0.012 4.469 0 C9.981 0.02 9.981 0.02 12.234 2.273 C12.562 4.988 12.365 7.526 12.234 10.273 C10.125 12.383 5.702 11.505 2.797 11.523 C1.613 11.554 1.613 11.554 0.404 11.586 C-1.887 11.602 -1.887 11.602 -5.766 11.273 C-8.067 7.821 -8.111 6.326 -7.766 2.273 C-5.206 -0.286 -3.494 0.013 0 0 Z " fill="#8E2DCA" transform="translate(119.765625,16.7265625)"/>
<path d="M0 0 C1.279 2.632 1.985 4.69 2.125 7.625 C1 10 1 10 -2.5 11.688 C-6.925 13.098 -11.446 14.104 -16 15 C-19.033 9.663 -19.033 9.663 -18.898 6.934 C-18 5 -18 5 -15.785 3.77 C-14.887 3.454 -13.988 3.138 -13.062 2.812 C-12.167 2.489 -11.271 2.165 -10.348 1.832 C-9.573 1.557 -8.798 1.283 -8 1 C-5.291 -0.354 -2.991 -0.065 0 0 Z " fill="#AE17AF" transform="translate(71,75)"/>
<path d="M0 0 C0.977 6.055 0.977 6.055 1 8 C-1.882 10.882 -5.119 10.789 -9 11.25 C-10.106 11.405 -10.106 11.405 -11.234 11.562 C-13.147 11.8 -15.075 11.909 -17 12 C-19 10 -19 10 -19.195 8.055 C-19.098 5.027 -19.098 5.027 -19 2 C-12.652 -0.308 -6.705 -0.198 0 0 Z " fill="#912CCA" transform="translate(108,43)"/>
<path d="M0 0 C1.587 4.108 2.102 5.592 1 10 C-4.28 11.32 -9.56 12.64 -15 14 C-18.375 7.25 -18.375 7.25 -18 3 C-15.939 2.493 -13.876 1.995 -11.812 1.5 C-10.664 1.222 -9.515 0.943 -8.332 0.656 C-5.432 0.085 -2.939 -0.133 0 0 Z " fill="#AF18B1" transform="translate(82,47)"/>
<path d="M0 0 C0 2.97 0 5.94 0 9 C-3.984 10.846 -7.444 11.36 -11.812 11.625 C-13.555 11.737 -13.555 11.737 -15.332 11.852 C-16.653 11.925 -16.653 11.925 -18 12 C-18.33 9.03 -18.66 6.06 -19 3 C-12.656 0.201 -6.826 -0.118 0 0 Z " fill="#3697EC" transform="translate(224,159)"/>
<path d="M0 0 C1.876 3.166 2.097 5.358 2 9 C0.111 10.012 -1.787 11.009 -3.688 12 C-5.271 12.835 -5.271 12.835 -6.887 13.688 C-9.922 14.967 -11.76 15.289 -15 15 C-15.99 12.69 -16.98 10.38 -18 8 C-13.724 2.557 -6.756 0 0 0 Z " fill="#B417B2" transform="translate(47,85)"/>
<path d="M0 0 C1 1 1 1 1.098 2.848 C1.065 4.898 1.033 6.949 1 9 C-1.602 9.557 -4.205 10.096 -6.812 10.625 C-7.55 10.785 -8.288 10.945 -9.049 11.109 C-14.66 12.227 -14.66 12.227 -18 10 C-18.188 6.375 -18.188 6.375 -18 3 C-12.039 0.37 -6.494 -0.255 0 0 Z " fill="#952DCF" transform="translate(105,20)"/>
<path d="M0 0 C1.244 -0.026 2.488 -0.052 3.77 -0.078 C7.324 0.263 8.652 0.823 11.188 3.25 C10.438 8 10.438 8 8.188 10.25 C5.625 10.422 3.184 10.483 0.625 10.438 C-0.073 10.437 -0.771 10.436 -1.49 10.436 C-6.672 10.39 -6.672 10.39 -7.812 9.25 C-7.945 7.438 -7.945 7.438 -7.938 5.25 C-7.94 4.528 -7.943 3.806 -7.945 3.062 C-7.63 -1.246 -3.449 0.043 0 0 Z " fill="#1D2B59" transform="translate(191.8125,221.75)"/>
<path d="M0 0 C1.191 -0.004 1.191 -0.004 2.406 -0.008 C4.5 0.125 4.5 0.125 6.5 1.125 C6.914 3.191 6.914 3.191 7.125 5.688 C7.2 6.514 7.275 7.34 7.352 8.191 C7.401 8.829 7.45 9.468 7.5 10.125 C4.217 12.313 3.182 12.374 -0.625 12.312 C-1.959 12.303 -1.959 12.303 -3.32 12.293 C-5.5 12.125 -5.5 12.125 -6.5 11.125 C-6.572 9.439 -6.584 7.75 -6.562 6.062 C-6.553 5.143 -6.544 4.224 -6.535 3.277 C-6.524 2.567 -6.512 1.857 -6.5 1.125 C-4.134 -0.058 -2.632 -0.009 0 0 Z " fill="#348BDF" transform="translate(186.5,138.875)"/>
<path d="M0 0 C1.504 0.014 1.504 0.014 3.039 0.027 C3.81 0.039 4.581 0.051 5.375 0.062 C6.868 3.048 6.493 5.771 6.375 9.062 C6.045 9.722 5.715 10.383 5.375 11.062 C1.415 11.062 -2.545 11.062 -6.625 11.062 C-8.232 7.848 -7.682 4.626 -7.625 1.062 C-4.98 -0.26 -2.947 -0.034 0 0 Z " fill="#8B2CC6" transform="translate(125.625,39.9375)"/>
<path d="M0 0 C0.785 0.005 1.57 0.01 2.379 0.016 C3.553 0.008 3.553 0.008 4.75 0 C6.941 0.266 6.941 0.266 9.941 2.266 C10.413 5.008 10.119 7.461 9.941 10.266 C8.941 11.266 8.941 11.266 6.254 11.398 C5.161 11.396 4.068 11.393 2.941 11.391 C1.848 11.393 0.755 11.396 -0.371 11.398 C-3.059 11.266 -3.059 11.266 -4.059 10.266 C-4.332 4.53 -4.332 4.53 -4.059 2.266 C-2.059 0.266 -2.059 0.266 0 0 Z " fill="#3E7EE9" transform="translate(160.05859375,161.734375)"/>
<path d="M0 0 C0.33 2.31 0.66 4.62 1 7 C-3.362 9.447 -7.027 10.503 -12 11 C-13.63 6.878 -14.263 4.293 -13 0 C-4.571 -2.571 -4.571 -2.571 0 0 Z " fill="#3490E4" transform="translate(231,112)"/>
<path d="M0 0 C1.979 -0.027 3.958 -0.046 5.938 -0.062 C7.04 -0.074 8.142 -0.086 9.277 -0.098 C12 0 12 0 13 1 C13.136 4.663 13.165 7.506 12 11 C10.396 11.054 8.792 11.093 7.188 11.125 C6.294 11.148 5.401 11.171 4.48 11.195 C2 11 2 11 -1 9 C-1.438 2.875 -1.438 2.875 0 0 Z " fill="#8A2DC9" transform="translate(142,18)"/>
<path d="M0 0 C1.085 2.808 2 5.22 2 8.25 C1 10 1 10 -1.75 11.25 C-4.658 11.921 -7.036 12.174 -10 12 C-10.99 9.69 -11.98 7.38 -13 5 C-8.824 0.376 -6.092 -0.169 0 0 Z " fill="#922CCA" transform="translate(92,68)"/>
<path d="M0 0 C1.325 2.728 2.009 4.633 1.938 7.688 C1 10 1 10 -1.25 11.312 C-3.962 11.991 -6.218 12.159 -9 12 C-10.316 8.38 -11 5.904 -11 2 C-7.366 -0.326 -4.229 -0.163 0 0 Z " fill="#2C9CDD" transform="translate(266,119)"/>
<path d="M0 0 C1.519 2.554 2.045 4.22 1.875 7.188 C1 9 1 9 -0.688 10.25 C-3.542 11.176 -6.018 11.136 -9 11 C-11 4.375 -11 4.375 -11 1 C-7.006 -0.579 -4.092 -1.705 0 0 Z " fill="#2D9DDF" transform="translate(245,150)"/>
<path d="M0 0 C0.791 -0.014 1.583 -0.028 2.398 -0.043 C4.625 0.188 4.625 0.188 7.625 2.188 C7.938 5.188 7.938 5.188 7.625 8.188 C5.625 10.188 5.625 10.188 3.277 10.418 C2.381 10.404 1.486 10.39 0.562 10.375 C-0.336 10.369 -1.234 10.362 -2.16 10.355 C-4.375 10.188 -4.375 10.188 -5.375 9.188 C-5.508 7.375 -5.508 7.375 -5.5 5.188 C-5.503 4.466 -5.505 3.744 -5.508 3 C-5.245 -0.583 -3.09 0.025 0 0 Z " fill="#1A2959" transform="translate(189.375,204.8125)"/>
<path d="M0 0 C0.99 0.66 1.98 1.32 3 2 C3.688 5.625 3.688 5.625 4 9 C0.488 11.408 -1.727 12.366 -6 12 C-6.363 10.711 -6.715 9.418 -7.062 8.125 C-7.358 7.046 -7.358 7.046 -7.66 5.945 C-8 4 -8 4 -7 2 C-3.625 0.75 -3.625 0.75 0 0 Z " fill="#B317B3" transform="translate(73,30)"/>
<path d="M0 0 C3.517 3.517 3.547 5.196 4 10 C4.66 10 5.32 10 6 10 C5.67 11.65 5.34 13.3 5 15 C2.03 15 -0.94 15 -4 15 C-5 11 -5 11 -4 9 C-3.34 9 -2.68 9 -2 9 C-1.34 6.03 -0.68 3.06 0 0 Z " fill="#222E5F" transform="translate(152,210)"/>
<path d="M0 0 C0.66 2.31 1.32 4.62 2 7 C-0.718 8.941 -2.297 10.016 -5.688 9.938 C-8 9 -8 9 -9.375 7.188 C-10.122 4.573 -10.221 3.442 -9 1 C-5.687 -0.88 -3.588 -1.329 0 0 Z " fill="#B917B5" transform="translate(54,61)"/>
<path d="M0 0 C-0.66 0.557 -1.32 1.114 -2 1.688 C-4.255 3.841 -4.255 3.841 -4.25 6.75 C-4.167 7.493 -4.085 8.235 -4 9 C-1.69 9 0.62 9 3 9 C-0.534 11.12 -3.944 11.532 -8 12 C-9.579 8.006 -10.705 5.092 -9 1 C-5.718 -0.951 -3.584 -1.327 0 0 Z " fill="#3288DB" transform="translate(237,132)"/>
<path d="M0 0 C2.25 0.25 2.25 0.25 4 1 C4 3.64 4 6.28 4 9 C2.35 9.66 0.7 10.32 -1 11 C-1.99 8.69 -2.98 6.38 -4 4 C-2.25 1.938 -2.25 1.938 0 0 Z " fill="#A91AB3" transform="translate(83,69)"/>
<path d="M0 0 C4.556 0.556 4.556 0.556 6 2 C6.125 4.5 6.125 4.5 6 7 C5 8 5 8 2 8.125 C-1 8 -1 8 -2 7 C-2.188 4.562 -2.188 4.562 -2 2 C-1.34 1.34 -0.68 0.68 0 0 Z " fill="#142D69" transform="translate(277,112)"/>
<path d="M0 0 C4.556 0.556 4.556 0.556 6 2 C6.041 3.666 6.043 5.334 6 7 C4.187 8.062 4.187 8.062 2 9 C1.01 8.67 0.02 8.34 -1 8 C-1.625 5.125 -1.625 5.125 -2 2 C-1.34 1.34 -0.68 0.68 0 0 Z " fill="#25195E" transform="translate(30,70)"/>
<path d="M0 0 C2.625 0.938 2.625 0.938 5 2 C4.67 3.65 4.34 5.3 4 7 C2.188 7.625 2.188 7.625 0 8 C-0.99 7.34 -1.98 6.68 -3 6 C-2.625 3.562 -2.625 3.562 -2 1 C-1.34 0.67 -0.68 0.34 0 0 Z " fill="#1E1859" transform="translate(19,100)"/>
<path d="M0 0 C2.5 0.125 2.5 0.125 3.5 1.125 C3.625 3.625 3.625 3.625 3.5 6.125 C2.5 7.125 2.5 7.125 0 7.25 C-2.5 7.125 -2.5 7.125 -3.5 6.125 C-3.625 3.625 -3.625 3.625 -3.5 1.125 C-2.5 0.125 -2.5 0.125 0 0 Z " fill="#0F1F56" transform="translate(261.5,144.875)"/>
<path d="M0 0 C1.65 0.33 3.3 0.66 5 1 C4.67 2.65 4.34 4.3 4 6 C3.01 6.33 2.02 6.66 1 7 C0.01 6.01 -0.98 5.02 -2 4 C-1.34 2.68 -0.68 1.36 0 0 Z " fill="#09164A" transform="translate(48,39)"/>
<path d="M0 0 C1.675 0.286 3.344 0.618 5 1 C5 2.65 5 4.3 5 6 C3.02 6 1.04 6 -1 6 C-1.043 4.334 -1.041 2.666 -1 1 C-0.67 0.67 -0.34 0.34 0 0 Z " fill="#081649" transform="translate(289,84)"/>
<path d="M0 0 C2 1 2 1 2 1 Z M0 1 C-2 3 -2 3 -4.562 4 C-7.148 4.749 -7.148 4.749 -8 7 C-8.66 7 -9.32 7 -10 7 C-10 6.34 -10 5.68 -10 5 C-11.32 4.67 -12.64 4.34 -14 4 C-4.59 0.556 -4.59 0.556 0 1 Z " fill="#376ED1" transform="translate(144,90)"/>
<path d="M0 0 C-0.928 0.433 -1.856 0.866 -2.812 1.312 C-6.424 3.12 -6.424 3.12 -9 6 C-9.73 9.61 -9.73 9.61 -10 13 C-10.33 13 -10.66 13 -11 13 C-11.612 5.778 -11.612 5.778 -8.688 2.062 C-5.318 -0.523 -4.1 -1.367 0 0 Z " fill="#2D78C3" transform="translate(263,139)"/>
<path d="M0 0 C0.66 0.33 1.32 0.66 2 1 C0.02 1.99 0.02 1.99 -2 3 C-1.34 2.01 -0.68 1.02 0 0 Z M-4 3 C-3.34 3.33 -2.68 3.66 -2 4 C-6.75 8.875 -6.75 8.875 -9 10 C-8.602 7.114 -8.21 6.178 -5.938 4.25 C-5.298 3.838 -4.659 3.425 -4 3 Z M-10 10 C-10 13 -10 13 -10 13 Z " fill="#3964CA" transform="translate(128,95)"/>
<path d="M0 0 C0.66 0.33 1.32 0.66 2 1 C0.218 3.301 -1.163 4.8 -4.047 5.488 C-6.025 5.723 -8.013 5.868 -10 6 C-6.875 3.476 -3.687 1.603 0 0 Z " fill="#623ACE" transform="translate(219,95)"/>
<path d="M0 0 C2 1 2 1 2 1 Z M-2 1 C0 2 0 2 0 2 Z M-2.812 2.375 C-2.214 2.581 -1.616 2.787 -1 3 C-4 5 -4 5 -6.188 4.625 C-6.786 4.419 -7.384 4.213 -8 4 C-5 2 -5 2 -2.812 2.375 Z M0 2 C2 3 2 3 2 3 Z " fill="#5634B9" transform="translate(196,95)"/>
<path d="M0 0 C0.33 0.99 0.66 1.98 1 3 C0.34 3.66 -0.32 4.32 -1 5 C-1.99 4.67 -2.98 4.34 -4 4 C-2.68 2.68 -1.36 1.36 0 0 Z " fill="#697397" transform="translate(207,233)"/>
</svg>